<svg width="125" height="27" viewBox="0 0 125 27" fill="none" xmlns="http://www.w3.org/2000/svg">
<g clip-path="url(#clip0_16084_152)">
<path d="M0 23.4949L3.01639 20.1386C4.52597 21.8168 6.57105 22.3767 8.78385 22.3767C11.5333 22.3767 13.009 21.2205 13.009 19.0947C13.009 18.1615 12.7746 17.3785 12.2718 16.8566C11.8016 16.3727 11.265 16.1116 10.1585 15.9248L7.27542 15.4773C5.23035 15.1418 3.72077 14.4334 2.6484 13.2772C1.5082 12.0083 0.938787 10.2924 0.938787 8.05567C0.938787 3.31858 4.09015 0 9.25382 0C12.5388 0 14.9205 0.895153 16.9655 3.0955L14.0142 6.33949C12.506 4.73567 10.6953 4.51259 9.11885 4.51259C6.63772 4.51259 5.43061 6.04205 5.43061 7.86894C5.43061 8.5396 5.63226 9.24826 6.13499 9.7702C6.60519 10.2558 7.37625 10.6653 8.34757 10.8157L11.1653 11.2633C13.3437 11.5987 14.7186 12.2694 15.724 13.3133C16.9994 14.6562 17.5689 16.5953 17.5689 18.9457C17.5689 24.0912 13.7131 27 8.71694 27C5.09561 27 2.34616 26.1426 0 23.4949Z" fill="#359740"/>
<path d="M21.9619 26.7769V0.223145H37.6861V4.84809H26.6214V11.0769H36.0443V15.7002H26.6214V22.152H37.6861V26.7769H21.9619Z" fill="#359740"/>
<path d="M42.2471 26.7769V0.223145H57.9713V4.84809H46.9066V11.0769H56.3295V15.7002H46.9066V22.152H57.9713V26.7769H42.2471Z" fill="#359740"/>
<path d="M97.3036 26.7769L92.6424 16.1857H89.2894V26.7769H84.6299V0.223145H93.9845C98.8457 0.223145 101.729 3.91635 101.729 8.35316C101.729 12.0827 99.6837 14.3952 97.3703 15.3284L102.702 26.7769H97.3036ZM93.682 4.84809H89.2894V11.8599H93.682C95.7271 11.8599 97.0692 10.4048 97.0692 8.35316C97.0692 6.30319 95.7271 4.84809 93.682 4.84809Z" fill="#359740"/>
<path d="M120.138 26.7769L118.73 22.0776H110.247L108.805 26.7769H103.943L112.628 0.223145H116.282L125 26.7769H120.138ZM114.572 8.05572L111.554 17.7152H117.489L114.572 8.05572Z" fill="#359740"/>
<path d="M77.4536 2.76012C75.8771 1.00758 73.6304 0.223145 71.1493 0.223145H62.5332V26.7769H67.7573C69.5569 21.6204 72.2807 15.9948 70.4242 7.66008C72.8974 16.3517 70.4512 21.8753 68.7247 26.7769H71.1493C73.6304 26.7769 75.8771 25.9939 77.4534 24.2414C80.1362 21.2568 79.8676 17.3783 79.8676 13.3877C79.8678 9.39845 80.1364 5.74325 77.4536 2.76012ZM70.2617 23.6401C71.599 20.3034 73.0045 14.9511 71.0046 8.38951C73.6807 11.7338 74.0951 16.6758 73.528 18.9304C78.3712 13.5166 73.3937 7.19126 68.4275 4.49612C71.5941 10.4204 71.1165 16.0023 68.6578 22.7178C60.933 17.3198 70.1037 10.4428 67.5047 3.0415C78.723 7.83996 80.7229 18.6309 70.2617 23.6401Z" fill="#359740"/>
</g>
<defs>
<clipPath id="clip0_16084_152">
<rect width="125" height="27" fill="white"/>
</clipPath>
</defs>
</svg>
